G75*
%MOIN*%
%OFA0B0*%
%FSLAX25Y25*%
%IPPOS*%
%LPD*%
%AMOC8*
5,1,8,0,0,1.08239X$1,22.5*
%
%ADD10OC8,0.05440*%
%ADD11C,0.05440*%
%ADD12C,0.05440*%
%ADD13OC8,0.06600*%
%ADD14C,0.08600*%
%ADD15C,0.08031*%
%ADD16C,0.08840*%
%ADD17C,0.02400*%
%ADD18OC8,0.39370*%
%ADD19C,0.04000*%
%ADD20OC8,0.05600*%
D10*
X0087398Y0062003D03*
X0122894Y0061255D03*
X0150390Y0062003D03*
X0122894Y0084877D03*
X0150390Y0092003D03*
X0185823Y0092003D03*
X0203540Y0092003D03*
X0221257Y0092003D03*
X0221257Y0062003D03*
X0203540Y0062003D03*
X0185823Y0062003D03*
X0122894Y0037633D03*
X0087398Y0092003D03*
X0077556Y0109247D03*
X0059839Y0123499D03*
X0059839Y0132869D03*
X0077556Y0139247D03*
X0083461Y0156491D03*
X0099209Y0156491D03*
X0114957Y0156491D03*
X0130705Y0156491D03*
X0146453Y0156491D03*
X0162201Y0156491D03*
X0189760Y0156491D03*
X0205509Y0156491D03*
X0221257Y0156491D03*
X0237005Y0156491D03*
X0252753Y0156491D03*
X0280312Y0156491D03*
X0296060Y0156491D03*
X0311808Y0156491D03*
X0327556Y0156491D03*
X0343304Y0156491D03*
X0359052Y0156491D03*
X0359052Y0186491D03*
X0343304Y0186491D03*
X0327556Y0186491D03*
X0311808Y0186491D03*
X0296060Y0186491D03*
X0280312Y0186491D03*
X0252753Y0186491D03*
X0237005Y0186491D03*
X0221257Y0186491D03*
X0205509Y0186491D03*
X0189760Y0186491D03*
X0162201Y0186491D03*
X0146453Y0186491D03*
X0130705Y0186491D03*
X0114957Y0186491D03*
X0099209Y0186491D03*
X0083461Y0186491D03*
X0059839Y0162869D03*
X0059839Y0093499D03*
X0296060Y0092003D03*
X0315745Y0092003D03*
X0315745Y0062003D03*
X0296060Y0062003D03*
X0329524Y0207672D03*
X0329524Y0237672D03*
D11*
X0114894Y0084877D03*
X0114894Y0061255D03*
X0114894Y0037633D03*
D12*
X0112831Y0106527D02*
X0112831Y0111967D01*
X0102831Y0111967D02*
X0102831Y0106527D01*
X0092831Y0106527D02*
X0092831Y0111967D01*
X0122831Y0111967D02*
X0122831Y0106527D01*
X0132831Y0106527D02*
X0132831Y0111967D01*
X0142831Y0111967D02*
X0142831Y0106527D01*
X0152831Y0106527D02*
X0152831Y0111967D01*
X0152831Y0136527D02*
X0152831Y0141967D01*
X0142831Y0141967D02*
X0142831Y0136527D01*
X0132831Y0136527D02*
X0132831Y0141967D01*
X0122831Y0141967D02*
X0122831Y0136527D01*
X0112831Y0136527D02*
X0112831Y0141967D01*
X0102831Y0141967D02*
X0102831Y0136527D01*
X0092831Y0136527D02*
X0092831Y0141967D01*
X0191257Y0141967D02*
X0191257Y0136527D01*
X0201257Y0136527D02*
X0201257Y0141967D01*
X0211257Y0141967D02*
X0211257Y0136527D01*
X0221257Y0136527D02*
X0221257Y0141967D01*
X0231257Y0141967D02*
X0231257Y0136527D01*
X0241257Y0136527D02*
X0241257Y0141967D01*
X0251257Y0141967D02*
X0251257Y0136527D01*
X0251257Y0111967D02*
X0251257Y0106527D01*
X0241257Y0106527D02*
X0241257Y0111967D01*
X0231257Y0111967D02*
X0231257Y0106527D01*
X0221257Y0106527D02*
X0221257Y0111967D01*
X0211257Y0111967D02*
X0211257Y0106527D01*
X0201257Y0106527D02*
X0201257Y0111967D01*
X0191257Y0111967D02*
X0191257Y0106527D01*
X0288934Y0106527D02*
X0288934Y0111967D01*
X0298934Y0111967D02*
X0298934Y0106527D01*
X0308934Y0106527D02*
X0308934Y0111967D01*
X0318934Y0111967D02*
X0318934Y0106527D01*
X0318934Y0136527D02*
X0318934Y0141967D01*
X0308934Y0141967D02*
X0308934Y0136527D01*
X0298934Y0136527D02*
X0298934Y0141967D01*
X0288934Y0141967D02*
X0288934Y0136527D01*
D13*
X0059839Y0174365D03*
X0059839Y0184365D03*
X0059839Y0082003D03*
X0059839Y0072003D03*
D14*
X0103146Y0206924D03*
X0122831Y0206924D03*
X0142516Y0206924D03*
X0142516Y0226609D03*
X0122831Y0226609D03*
X0103146Y0226609D03*
D15*
X0264564Y0230625D02*
X0264564Y0222594D01*
X0284249Y0222594D02*
X0284249Y0230625D01*
X0303934Y0230625D02*
X0303934Y0222594D01*
X0362910Y0124247D02*
X0370942Y0124247D01*
X0370942Y0104562D02*
X0362910Y0104562D01*
X0362910Y0084877D02*
X0370942Y0084877D01*
D16*
X0233140Y0218252D02*
X0233140Y0227092D01*
X0213340Y0227092D02*
X0213340Y0218252D01*
X0193740Y0218252D02*
X0193740Y0227092D01*
X0173940Y0227092D02*
X0173940Y0218252D01*
D17*
X0173940Y0222672D02*
X0173940Y0142036D01*
X0174012Y0141964D01*
X0162201Y0153775D02*
X0162201Y0156491D01*
X0162201Y0153775D02*
X0156296Y0147869D01*
X0146453Y0147869D01*
X0142831Y0144247D01*
X0142831Y0139247D01*
X0132831Y0139247D02*
X0132831Y0146058D01*
X0143264Y0156491D01*
X0146453Y0156491D01*
X0130705Y0156491D02*
X0122831Y0148617D01*
X0122831Y0139247D01*
X0112831Y0139247D02*
X0112831Y0154365D01*
X0114957Y0156491D01*
X0102831Y0152869D02*
X0102831Y0139247D01*
X0092831Y0139247D02*
X0092831Y0109247D01*
X0084911Y0113092D02*
X0080836Y0117167D01*
X0074275Y0117167D01*
X0069636Y0112528D01*
X0069636Y0105967D01*
X0071156Y0104447D01*
X0071156Y0103289D01*
X0072130Y0100937D01*
X0076067Y0097000D01*
X0077867Y0095200D01*
X0079478Y0094532D01*
X0079478Y0088723D01*
X0084118Y0084083D01*
X0090679Y0084083D01*
X0092199Y0085603D01*
X0095797Y0085603D01*
X0098150Y0086577D01*
X0099950Y0088378D01*
X0101850Y0090278D01*
X0101850Y0090278D01*
X0103651Y0092079D01*
X0106431Y0094859D01*
X0106431Y0085667D01*
X0106974Y0084356D01*
X0106974Y0083302D01*
X0108180Y0080391D01*
X0108494Y0080077D01*
X0108494Y0066056D01*
X0108180Y0065741D01*
X0106974Y0062830D01*
X0106974Y0059680D01*
X0108180Y0056769D01*
X0108494Y0056455D01*
X0108494Y0042434D01*
X0108180Y0042119D01*
X0106974Y0039208D01*
X0106974Y0036058D01*
X0108180Y0033147D01*
X0110273Y0031054D01*
X0084724Y0031054D01*
X0084724Y0047941D01*
X0070147Y0062518D01*
X0067039Y0062518D01*
X0067039Y0067182D01*
X0068339Y0068482D01*
X0068339Y0075524D01*
X0066860Y0077003D01*
X0068339Y0078482D01*
X0068339Y0085524D01*
X0066239Y0087624D01*
X0066239Y0088699D01*
X0067759Y0090219D01*
X0067759Y0096780D01*
X0063120Y0101419D01*
X0056559Y0101419D01*
X0051919Y0096780D01*
X0051919Y0090219D01*
X0053439Y0088699D01*
X0053439Y0087624D01*
X0051339Y0085524D01*
X0051339Y0078482D01*
X0052818Y0077003D01*
X0051339Y0075524D01*
X0051339Y0068482D01*
X0052639Y0067182D01*
X0052639Y0062518D01*
X0049532Y0062518D01*
X0038080Y0051067D01*
X0038080Y0205302D01*
X0049532Y0193850D01*
X0052639Y0193850D01*
X0052639Y0189186D01*
X0051339Y0187886D01*
X0051339Y0180845D01*
X0052818Y0179365D01*
X0051339Y0177886D01*
X0051339Y0170845D01*
X0053439Y0168745D01*
X0053439Y0167670D01*
X0051919Y0166150D01*
X0051919Y0159589D01*
X0056559Y0154949D01*
X0063120Y0154949D01*
X0067219Y0159048D01*
X0067219Y0158407D01*
X0068193Y0156055D01*
X0069993Y0154255D01*
X0069993Y0154255D01*
X0071517Y0152731D01*
X0071156Y0151859D01*
X0071156Y0144048D01*
X0069636Y0142528D01*
X0069636Y0135967D01*
X0074275Y0131327D01*
X0080836Y0131327D01*
X0084911Y0135402D01*
X0084911Y0134952D01*
X0086117Y0132041D01*
X0086431Y0131727D01*
X0086431Y0116768D01*
X0086117Y0116454D01*
X0084911Y0113543D01*
X0084911Y0113092D01*
X0084911Y0113210D02*
X0084794Y0113210D01*
X0085767Y0115609D02*
X0082395Y0115609D01*
X0086431Y0118007D02*
X0062719Y0118007D01*
X0062291Y0117579D02*
X0065759Y0121047D01*
X0065759Y0123499D01*
X0059839Y0123499D01*
X0053919Y0123499D01*
X0053919Y0121047D01*
X0057387Y0117579D01*
X0059839Y0117579D01*
X0059839Y0123499D01*
X0059839Y0123499D01*
X0059839Y0123499D01*
X0053919Y0123499D01*
X0053919Y0125951D01*
X0056152Y0128184D01*
X0053919Y0130417D01*
X0053919Y0132869D01*
X0059839Y0132869D01*
X0059839Y0132869D01*
X0059839Y0126949D01*
X0059839Y0123499D01*
X0059839Y0117579D01*
X0062291Y0117579D01*
X0059839Y0118007D02*
X0059839Y0118007D01*
X0059839Y0120406D02*
X0059839Y0120406D01*
X0059839Y0122804D02*
X0059839Y0122804D01*
X0059839Y0123499D02*
X0059839Y0123499D01*
X0059839Y0132869D01*
X0059839Y0132869D01*
X0059839Y0123499D01*
X0059839Y0123499D01*
X0065759Y0123499D01*
X0065759Y0125951D01*
X0063526Y0128184D01*
X0065759Y0130417D01*
X0065759Y0132869D01*
X0059839Y0132869D01*
X0053919Y0132869D01*
X0053919Y0135321D01*
X0057387Y0138789D01*
X0059839Y0138789D01*
X0059839Y0132869D01*
X0059839Y0132869D01*
X0059839Y0132869D01*
X0065759Y0132869D01*
X0065759Y0135321D01*
X0062291Y0138789D01*
X0059839Y0138789D01*
X0059839Y0132869D01*
X0059839Y0132398D02*
X0059839Y0132398D01*
X0059839Y0130000D02*
X0059839Y0130000D01*
X0059839Y0127601D02*
X0059839Y0127601D01*
X0059839Y0125203D02*
X0059839Y0125203D01*
X0055569Y0127601D02*
X0038080Y0127601D01*
X0038080Y0125203D02*
X0053919Y0125203D01*
X0053919Y0122804D02*
X0038080Y0122804D01*
X0038080Y0120406D02*
X0054561Y0120406D01*
X0056959Y0118007D02*
X0038080Y0118007D01*
X0038080Y0115609D02*
X0072716Y0115609D01*
X0070318Y0113210D02*
X0038080Y0113210D01*
X0038080Y0110811D02*
X0069636Y0110811D01*
X0069636Y0108413D02*
X0038080Y0108413D01*
X0038080Y0106014D02*
X0069636Y0106014D01*
X0071156Y0103616D02*
X0038080Y0103616D01*
X0038080Y0101217D02*
X0056357Y0101217D01*
X0053958Y0098819D02*
X0038080Y0098819D01*
X0038080Y0096420D02*
X0051919Y0096420D01*
X0051919Y0094022D02*
X0038080Y0094022D01*
X0038080Y0091623D02*
X0051919Y0091623D01*
X0052913Y0089225D02*
X0038080Y0089225D01*
X0038080Y0086826D02*
X0052642Y0086826D01*
X0051339Y0084428D02*
X0038080Y0084428D01*
X0038080Y0082029D02*
X0051339Y0082029D01*
X0051339Y0079631D02*
X0038080Y0079631D01*
X0038080Y0077232D02*
X0052589Y0077232D01*
X0051339Y0074834D02*
X0038080Y0074834D01*
X0038080Y0072435D02*
X0051339Y0072435D01*
X0051339Y0070037D02*
X0038080Y0070037D01*
X0038080Y0067638D02*
X0052183Y0067638D01*
X0052639Y0065240D02*
X0038080Y0065240D01*
X0038080Y0062841D02*
X0052639Y0062841D01*
X0047456Y0060443D02*
X0038080Y0060443D01*
X0038080Y0058044D02*
X0045058Y0058044D01*
X0042659Y0055646D02*
X0038080Y0055646D01*
X0038080Y0053247D02*
X0040261Y0053247D01*
X0067039Y0062841D02*
X0079478Y0062841D01*
X0079478Y0060443D02*
X0072222Y0060443D01*
X0074621Y0058044D02*
X0080157Y0058044D01*
X0079478Y0058723D02*
X0084118Y0054083D01*
X0090679Y0054083D01*
X0095318Y0058723D01*
X0095318Y0065284D01*
X0090679Y0069923D01*
X0084118Y0069923D01*
X0079478Y0065284D01*
X0079478Y0058723D01*
X0077019Y0055646D02*
X0082555Y0055646D01*
X0079418Y0053247D02*
X0108494Y0053247D01*
X0108494Y0050849D02*
X0081816Y0050849D01*
X0084215Y0048450D02*
X0108494Y0048450D01*
X0108494Y0046052D02*
X0084724Y0046052D01*
X0084724Y0043653D02*
X0108494Y0043653D01*
X0107822Y0041255D02*
X0084724Y0041255D01*
X0084724Y0038856D02*
X0106974Y0038856D01*
X0106974Y0036458D02*
X0084724Y0036458D01*
X0084724Y0034059D02*
X0107802Y0034059D01*
X0109666Y0031661D02*
X0084724Y0031661D01*
X0074052Y0016654D02*
X0116390Y0016654D01*
X0119036Y0017750D01*
X0126973Y0025687D01*
X0128998Y0027712D01*
X0130094Y0030358D01*
X0130094Y0033633D01*
X0130814Y0034352D01*
X0130814Y0040914D01*
X0129294Y0042434D01*
X0129294Y0056455D01*
X0130814Y0057975D01*
X0130814Y0064536D01*
X0129294Y0066056D01*
X0129294Y0080077D01*
X0130814Y0081597D01*
X0130814Y0088158D01*
X0129231Y0089741D01*
X0129231Y0091080D01*
X0133734Y0086577D01*
X0136086Y0085603D01*
X0145590Y0085603D01*
X0147110Y0084083D01*
X0153671Y0084083D01*
X0158310Y0088723D01*
X0158310Y0095284D01*
X0154817Y0098777D01*
X0157318Y0099813D01*
X0159546Y0102041D01*
X0160751Y0104952D01*
X0160751Y0111142D01*
X0183337Y0111142D01*
X0183337Y0104952D01*
X0184542Y0102041D01*
X0184857Y0101727D01*
X0184857Y0100087D01*
X0184693Y0099923D01*
X0182543Y0099923D01*
X0177903Y0095284D01*
X0177903Y0088723D01*
X0182543Y0084083D01*
X0189104Y0084083D01*
X0193743Y0088723D01*
X0193743Y0090872D01*
X0195158Y0092286D01*
X0195620Y0091170D01*
X0195620Y0088723D01*
X0197140Y0087203D01*
X0197140Y0085560D01*
X0194984Y0083403D01*
X0190456Y0083403D01*
X0188104Y0082429D01*
X0180398Y0074723D01*
X0179423Y0072371D01*
X0179423Y0066804D01*
X0177903Y0065284D01*
X0177903Y0058723D01*
X0182543Y0054083D01*
X0189104Y0054083D01*
X0193743Y0058723D01*
X0193743Y0065284D01*
X0192223Y0066804D01*
X0192223Y0068447D01*
X0194380Y0070603D01*
X0198908Y0070603D01*
X0201260Y0071577D01*
X0203060Y0073378D01*
X0208966Y0079283D01*
X0209940Y0081636D01*
X0209940Y0087203D01*
X0211460Y0088723D01*
X0211460Y0089560D01*
X0212642Y0088378D01*
X0212642Y0088378D01*
X0214442Y0086577D01*
X0216217Y0085843D01*
X0217976Y0084083D01*
X0224537Y0084083D01*
X0229177Y0088723D01*
X0229177Y0095284D01*
X0224968Y0099492D01*
X0225743Y0099813D01*
X0226257Y0100327D01*
X0226770Y0099813D01*
X0229681Y0098607D01*
X0232832Y0098607D01*
X0235743Y0099813D01*
X0236257Y0100327D01*
X0236770Y0099813D01*
X0239681Y0098607D01*
X0242832Y0098607D01*
X0245743Y0099813D01*
X0246257Y0100327D01*
X0246770Y0099813D01*
X0249681Y0098607D01*
X0252832Y0098607D01*
X0255743Y0099813D01*
X0257971Y0102041D01*
X0259177Y0104952D01*
X0259177Y0111142D01*
X0275838Y0111142D01*
X0278485Y0112238D01*
X0281879Y0115633D01*
X0281014Y0113543D01*
X0281014Y0104952D01*
X0282219Y0102041D01*
X0282534Y0101727D01*
X0282534Y0074982D01*
X0283508Y0072630D01*
X0285308Y0070829D01*
X0290466Y0065672D01*
X0291096Y0065411D01*
X0290140Y0064455D01*
X0290140Y0062003D01*
X0290140Y0059551D01*
X0293608Y0056083D01*
X0296060Y0056083D01*
X0298512Y0056083D01*
X0301980Y0059551D01*
X0301980Y0062003D01*
X0296060Y0062003D01*
X0296060Y0062003D01*
X0296060Y0056083D01*
X0296060Y0062003D01*
X0296060Y0062003D01*
X0301980Y0062003D01*
X0301980Y0064455D01*
X0301737Y0064698D01*
X0310067Y0064698D01*
X0309825Y0064455D01*
X0309825Y0062003D01*
X0309825Y0059551D01*
X0313293Y0056083D01*
X0315745Y0056083D01*
X0318197Y0056083D01*
X0321665Y0059551D01*
X0321665Y0062003D01*
X0315745Y0062003D01*
X0315745Y0062003D01*
X0315745Y0056083D01*
X0315745Y0062003D01*
X0315745Y0062003D01*
X0321665Y0062003D01*
X0321665Y0064455D01*
X0321422Y0064698D01*
X0378041Y0064698D01*
X0380394Y0065672D01*
X0380811Y0066089D01*
X0380811Y0048238D01*
X0368531Y0060518D01*
X0360252Y0060518D01*
X0360252Y0038833D01*
X0357852Y0038833D01*
X0357852Y0060518D01*
X0349573Y0060518D01*
X0336167Y0047112D01*
X0336167Y0038833D01*
X0357852Y0038833D01*
X0357852Y0036433D01*
X0336167Y0036433D01*
X0336167Y0028154D01*
X0348447Y0015874D01*
X0073273Y0015874D01*
X0074052Y0016654D01*
X0117877Y0017270D02*
X0347051Y0017270D01*
X0344653Y0019668D02*
X0120954Y0019668D01*
X0123353Y0022067D02*
X0342254Y0022067D01*
X0339855Y0024465D02*
X0125751Y0024465D01*
X0128150Y0026864D02*
X0337457Y0026864D01*
X0336167Y0029262D02*
X0129640Y0029262D01*
X0130094Y0031661D02*
X0336167Y0031661D01*
X0336167Y0034059D02*
X0130521Y0034059D01*
X0130814Y0036458D02*
X0357852Y0036458D01*
X0357852Y0038856D02*
X0360252Y0038856D01*
X0360252Y0041255D02*
X0357852Y0041255D01*
X0357852Y0043653D02*
X0360252Y0043653D01*
X0360252Y0046052D02*
X0357852Y0046052D01*
X0357852Y0048450D02*
X0360252Y0048450D01*
X0360252Y0050849D02*
X0357852Y0050849D01*
X0357852Y0053247D02*
X0360252Y0053247D01*
X0360252Y0055646D02*
X0357852Y0055646D01*
X0357852Y0058044D02*
X0360252Y0058044D01*
X0360252Y0060443D02*
X0357852Y0060443D01*
X0349497Y0060443D02*
X0321665Y0060443D01*
X0321665Y0062841D02*
X0380811Y0062841D01*
X0380811Y0060443D02*
X0368606Y0060443D01*
X0371005Y0058044D02*
X0380811Y0058044D01*
X0380811Y0055646D02*
X0373403Y0055646D01*
X0375802Y0053247D02*
X0380811Y0053247D01*
X0380811Y0050849D02*
X0378201Y0050849D01*
X0380599Y0048450D02*
X0380811Y0048450D01*
X0380811Y0065240D02*
X0379350Y0065240D01*
X0376768Y0071098D02*
X0294091Y0071098D01*
X0288934Y0076255D01*
X0288934Y0109247D01*
X0281014Y0108413D02*
X0259177Y0108413D01*
X0259177Y0110811D02*
X0281014Y0110811D01*
X0281014Y0113210D02*
X0279457Y0113210D01*
X0281855Y0115609D02*
X0281869Y0115609D01*
X0285268Y0119022D02*
X0295038Y0128791D01*
X0296090Y0131332D01*
X0296661Y0131041D01*
X0297547Y0130753D01*
X0298468Y0130607D01*
X0298934Y0130607D01*
X0299400Y0130607D01*
X0300320Y0130753D01*
X0301206Y0131041D01*
X0302036Y0131464D01*
X0302477Y0131784D01*
X0304447Y0129813D01*
X0307358Y0128607D01*
X0310509Y0128607D01*
X0313420Y0129813D01*
X0313934Y0130327D01*
X0314447Y0129813D01*
X0317358Y0128607D01*
X0320509Y0128607D01*
X0323420Y0129813D01*
X0325648Y0132041D01*
X0325982Y0132847D01*
X0355180Y0132847D01*
X0356829Y0131199D01*
X0355097Y0129468D01*
X0353694Y0126080D01*
X0353694Y0122414D01*
X0355097Y0119027D01*
X0357690Y0116435D01*
X0361077Y0115031D01*
X0372775Y0115031D01*
X0376162Y0116435D01*
X0378754Y0119027D01*
X0380157Y0122414D01*
X0380157Y0126080D01*
X0378754Y0129468D01*
X0376162Y0132060D01*
X0373326Y0133235D01*
X0373326Y0149890D01*
X0372352Y0152243D01*
X0370551Y0154043D01*
X0366972Y0157622D01*
X0366972Y0158163D01*
X0371486Y0153649D01*
X0378114Y0153649D01*
X0380811Y0156346D01*
X0380811Y0107602D01*
X0378842Y0109571D01*
X0378754Y0109783D01*
X0376162Y0112375D01*
X0372775Y0113778D01*
X0361077Y0113778D01*
X0357690Y0112375D01*
X0355097Y0109783D01*
X0353694Y0106395D01*
X0353694Y0102729D01*
X0355097Y0099342D01*
X0356036Y0098403D01*
X0320545Y0098403D01*
X0320341Y0098607D01*
X0320509Y0098607D01*
X0323420Y0099813D01*
X0325648Y0102041D01*
X0325982Y0102847D01*
X0329577Y0102847D01*
X0331929Y0103822D01*
X0332544Y0104436D01*
X0334806Y0104436D01*
X0339493Y0109123D01*
X0339493Y0115750D01*
X0334806Y0120436D01*
X0328179Y0120436D01*
X0324922Y0117179D01*
X0323420Y0118681D01*
X0320509Y0119887D01*
X0317358Y0119887D01*
X0314447Y0118681D01*
X0313934Y0118168D01*
X0313420Y0118681D01*
X0310509Y0119887D01*
X0307358Y0119887D01*
X0304447Y0118681D01*
X0303934Y0118168D01*
X0303420Y0118681D01*
X0300509Y0119887D01*
X0297358Y0119887D01*
X0294447Y0118681D01*
X0293934Y0118168D01*
X0293420Y0118681D01*
X0290509Y0119887D01*
X0287358Y0119887D01*
X0285268Y0119022D01*
X0286652Y0120406D02*
X0328148Y0120406D01*
X0325750Y0118007D02*
X0324095Y0118007D01*
X0331493Y0112436D02*
X0328304Y0109247D01*
X0318934Y0109247D01*
X0324825Y0101217D02*
X0354320Y0101217D01*
X0353694Y0103616D02*
X0331433Y0103616D01*
X0336385Y0106014D02*
X0353694Y0106014D01*
X0354530Y0108413D02*
X0338783Y0108413D01*
X0339493Y0110811D02*
X0356126Y0110811D01*
X0359706Y0113210D02*
X0339493Y0113210D01*
X0339493Y0115609D02*
X0359684Y0115609D01*
X0356117Y0118007D02*
X0337236Y0118007D01*
X0334837Y0120406D02*
X0354526Y0120406D01*
X0353694Y0122804D02*
X0289051Y0122804D01*
X0291449Y0125203D02*
X0353694Y0125203D01*
X0354324Y0127601D02*
X0293848Y0127601D01*
X0295538Y0130000D02*
X0304261Y0130000D01*
X0298934Y0130607D02*
X0298934Y0139247D01*
X0298934Y0139247D01*
X0298934Y0130607D01*
X0298934Y0132398D02*
X0298934Y0132398D01*
X0298934Y0134797D02*
X0298934Y0134797D01*
X0298934Y0137195D02*
X0298934Y0137195D01*
X0308934Y0139247D02*
X0308934Y0144838D01*
X0305902Y0147869D01*
X0284249Y0147869D01*
X0280312Y0151806D01*
X0280312Y0156491D01*
X0280312Y0159680D01*
X0284249Y0163617D01*
X0349209Y0163617D01*
X0359052Y0173460D01*
X0359052Y0186491D01*
X0359052Y0187239D01*
X0353146Y0193145D01*
X0339367Y0193145D01*
X0329524Y0202987D01*
X0329524Y0207672D01*
X0321650Y0214798D02*
X0309839Y0226609D01*
X0303934Y0226609D01*
X0294718Y0225940D02*
X0293464Y0225940D01*
X0293464Y0223542D02*
X0294718Y0223542D01*
X0294718Y0221143D02*
X0293464Y0221143D01*
X0293464Y0220761D02*
X0293464Y0230711D01*
X0294026Y0231272D01*
X0294718Y0231272D01*
X0294718Y0220761D01*
X0296121Y0217373D01*
X0298713Y0214781D01*
X0302101Y0213378D01*
X0305767Y0213378D01*
X0309154Y0214781D01*
X0310885Y0216512D01*
X0315250Y0212147D01*
X0315250Y0204659D01*
X0309528Y0210382D01*
X0307175Y0211356D01*
X0277057Y0211356D01*
X0271708Y0216705D01*
X0272376Y0217373D01*
X0273779Y0220761D01*
X0273779Y0232458D01*
X0272376Y0235845D01*
X0269784Y0238438D01*
X0266397Y0239841D01*
X0262731Y0239841D01*
X0259343Y0238438D01*
X0256751Y0235845D01*
X0255348Y0232458D01*
X0255348Y0228525D01*
X0254026Y0229072D01*
X0242732Y0229072D01*
X0241295Y0232542D01*
X0238589Y0235248D01*
X0235054Y0236712D01*
X0231226Y0236712D01*
X0227691Y0235248D01*
X0224985Y0232542D01*
X0223520Y0229006D01*
X0223520Y0216339D01*
X0224985Y0212803D01*
X0227691Y0210097D01*
X0231226Y0208632D01*
X0235054Y0208632D01*
X0238589Y0210097D01*
X0241295Y0212803D01*
X0242732Y0216272D01*
X0248321Y0216272D01*
X0248321Y0209588D01*
X0249295Y0207236D01*
X0263075Y0193457D01*
X0264875Y0191656D01*
X0267228Y0190682D01*
X0273302Y0190682D01*
X0272392Y0189772D01*
X0272392Y0183211D01*
X0277031Y0178571D01*
X0283592Y0178571D01*
X0288186Y0183165D01*
X0289497Y0181854D01*
X0285535Y0177891D01*
X0273133Y0177891D01*
X0270781Y0176917D01*
X0259036Y0165172D01*
X0258178Y0167243D01*
X0256378Y0169043D01*
X0250472Y0174948D01*
X0248120Y0175923D01*
X0239656Y0175923D01*
X0237007Y0178571D01*
X0240285Y0178571D01*
X0244879Y0183165D01*
X0249472Y0178571D01*
X0256033Y0178571D01*
X0260673Y0183211D01*
X0260673Y0189772D01*
X0256033Y0194411D01*
X0249472Y0194411D01*
X0244879Y0189818D01*
X0240285Y0194411D01*
X0235531Y0194411D01*
X0235531Y0194418D01*
X0234556Y0196770D01*
X0232756Y0198571D01*
X0220009Y0211317D01*
X0221495Y0212803D01*
X0222960Y0216339D01*
X0222960Y0229006D01*
X0221495Y0232542D01*
X0218789Y0235248D01*
X0215254Y0236712D01*
X0211426Y0236712D01*
X0207891Y0235248D01*
X0205185Y0232542D01*
X0203720Y0229006D01*
X0203720Y0216339D01*
X0205185Y0212803D01*
X0206940Y0211048D01*
X0206940Y0207662D01*
X0207914Y0205310D01*
X0220813Y0192411D01*
X0218804Y0192411D01*
X0215337Y0188943D01*
X0215337Y0186491D01*
X0215337Y0184039D01*
X0218804Y0180571D01*
X0221256Y0180571D01*
X0221256Y0186491D01*
X0215337Y0186491D01*
X0221256Y0186491D01*
X0221256Y0186491D01*
X0221257Y0186491D01*
X0221257Y0180571D01*
X0222731Y0180571D01*
X0222731Y0176124D01*
X0223705Y0173772D01*
X0231579Y0165898D01*
X0233379Y0164097D01*
X0233401Y0164088D01*
X0230635Y0161322D01*
X0230039Y0161917D01*
X0227687Y0162891D01*
X0226057Y0162891D01*
X0224537Y0164411D01*
X0217976Y0164411D01*
X0213383Y0159818D01*
X0208789Y0164411D01*
X0204034Y0164411D01*
X0204034Y0166859D01*
X0203060Y0169211D01*
X0201260Y0171011D01*
X0196160Y0176111D01*
X0196160Y0181691D01*
X0197680Y0183211D01*
X0197680Y0189772D01*
X0193041Y0194411D01*
X0188286Y0194411D01*
X0188286Y0208168D01*
X0189652Y0209533D01*
X0191826Y0208632D01*
X0195654Y0208632D01*
X0199189Y0210097D01*
X0201895Y0212803D01*
X0203360Y0216339D01*
X0203360Y0229006D01*
X0201895Y0232542D01*
X0199189Y0235248D01*
X0195654Y0236712D01*
X0191826Y0236712D01*
X0188291Y0235248D01*
X0185585Y0232542D01*
X0184120Y0229006D01*
X0184120Y0222103D01*
X0183560Y0221543D01*
X0183560Y0229006D01*
X0182095Y0232542D01*
X0179389Y0235248D01*
X0175854Y0236712D01*
X0172026Y0236712D01*
X0168491Y0235248D01*
X0165785Y0232542D01*
X0164320Y0229006D01*
X0164320Y0216339D01*
X0165785Y0212803D01*
X0167540Y0211048D01*
X0167540Y0192353D01*
X0165482Y0194411D01*
X0158921Y0194411D01*
X0154327Y0189818D01*
X0149734Y0194411D01*
X0147676Y0194411D01*
X0147942Y0194677D01*
X0148916Y0197029D01*
X0148916Y0199889D01*
X0150570Y0201543D01*
X0152016Y0205035D01*
X0152016Y0208814D01*
X0150570Y0212306D01*
X0147898Y0214978D01*
X0144406Y0216424D01*
X0141382Y0216424D01*
X0142067Y0217109D01*
X0144406Y0217109D01*
X0147898Y0218556D01*
X0150570Y0221228D01*
X0152016Y0224720D01*
X0152016Y0228499D01*
X0150570Y0231991D01*
X0147898Y0234663D01*
X0144406Y0236109D01*
X0140627Y0236109D01*
X0137135Y0234663D01*
X0134463Y0231991D01*
X0133016Y0228499D01*
X0133016Y0226160D01*
X0132331Y0225475D01*
X0132331Y0228499D01*
X0130885Y0231991D01*
X0128213Y0234663D01*
X0124721Y0236109D01*
X0120942Y0236109D01*
X0117450Y0234663D01*
X0114778Y0231991D01*
X0113331Y0228499D01*
X0113331Y0226160D01*
X0112646Y0225475D01*
X0112646Y0228499D01*
X0111200Y0231991D01*
X0108528Y0234663D01*
X0105036Y0236109D01*
X0101257Y0236109D01*
X0097765Y0234663D01*
X0095093Y0231991D01*
X0093646Y0228499D01*
X0093646Y0224720D01*
X0095093Y0221228D01*
X0095122Y0221198D01*
X0090062Y0221198D01*
X0087710Y0220224D01*
X0085910Y0218424D01*
X0084724Y0217238D01*
X0084724Y0229043D01*
X0073273Y0240494D01*
X0285146Y0240494D01*
X0284492Y0239841D01*
X0282416Y0239841D01*
X0279028Y0238438D01*
X0276436Y0235845D01*
X0275033Y0232458D01*
X0275033Y0220761D01*
X0276436Y0217373D01*
X0279028Y0214781D01*
X0282416Y0213378D01*
X0286082Y0213378D01*
X0289469Y0214781D01*
X0292061Y0217373D01*
X0293464Y0220761D01*
X0292629Y0218745D02*
X0295553Y0218745D01*
X0297148Y0216346D02*
X0291034Y0216346D01*
X0287457Y0213947D02*
X0300726Y0213947D01*
X0307142Y0213947D02*
X0313450Y0213947D01*
X0315250Y0211549D02*
X0276864Y0211549D01*
X0274466Y0213947D02*
X0281041Y0213947D01*
X0277463Y0216346D02*
X0272067Y0216346D01*
X0272944Y0218745D02*
X0275868Y0218745D01*
X0275033Y0221143D02*
X0273779Y0221143D01*
X0273779Y0223542D02*
X0275033Y0223542D01*
X0275033Y0225940D02*
X0273779Y0225940D01*
X0273779Y0228339D02*
X0275033Y0228339D01*
X0275033Y0230737D02*
X0273779Y0230737D01*
X0273499Y0233136D02*
X0275313Y0233136D01*
X0276307Y0235534D02*
X0272505Y0235534D01*
X0270289Y0237933D02*
X0278523Y0237933D01*
X0284982Y0240331D02*
X0073436Y0240331D01*
X0075835Y0237933D02*
X0258838Y0237933D01*
X0256622Y0235534D02*
X0237898Y0235534D01*
X0240702Y0233136D02*
X0255628Y0233136D01*
X0255348Y0230737D02*
X0242043Y0230737D01*
X0233140Y0222672D02*
X0252753Y0222672D01*
X0254721Y0220704D01*
X0254721Y0210861D01*
X0268501Y0197082D01*
X0278343Y0197082D01*
X0280312Y0195113D01*
X0280312Y0186491D01*
X0285389Y0180368D02*
X0288012Y0180368D01*
X0287788Y0182767D02*
X0288584Y0182767D01*
X0285613Y0177970D02*
X0237609Y0177970D01*
X0242082Y0180368D02*
X0247675Y0180368D01*
X0245277Y0182767D02*
X0244481Y0182767D01*
X0248969Y0175571D02*
X0269435Y0175571D01*
X0267037Y0173173D02*
X0252248Y0173173D01*
X0254647Y0170774D02*
X0264638Y0170774D01*
X0262240Y0168376D02*
X0257045Y0168376D01*
X0258702Y0165977D02*
X0259841Y0165977D01*
X0252753Y0163617D02*
X0252753Y0156491D01*
X0254721Y0154523D01*
X0254721Y0141964D01*
X0252005Y0139247D01*
X0251257Y0139247D01*
X0241257Y0139247D02*
X0241257Y0152239D01*
X0237005Y0156491D01*
X0231099Y0151806D02*
X0231099Y0139405D01*
X0231257Y0139247D01*
X0217320Y0128184D02*
X0256690Y0128184D01*
X0260627Y0132121D01*
X0260627Y0157712D01*
X0274406Y0171491D01*
X0288186Y0171491D01*
X0296060Y0179365D01*
X0296060Y0186491D01*
X0311808Y0186491D02*
X0311808Y0199050D01*
X0305902Y0204956D01*
X0274406Y0204956D01*
X0264564Y0214798D01*
X0264564Y0226609D01*
X0248321Y0213947D02*
X0241769Y0213947D01*
X0240041Y0211549D02*
X0248321Y0211549D01*
X0248503Y0209150D02*
X0236304Y0209150D01*
X0229976Y0209150D02*
X0222176Y0209150D01*
X0220241Y0211549D02*
X0226239Y0211549D01*
X0224511Y0213947D02*
X0221969Y0213947D01*
X0222960Y0216346D02*
X0223520Y0216346D01*
X0223520Y0218745D02*
X0222960Y0218745D01*
X0222960Y0221143D02*
X0223520Y0221143D01*
X0223520Y0223542D02*
X0222960Y0223542D01*
X0222960Y0225940D02*
X0223520Y0225940D01*
X0223520Y0228339D02*
X0222960Y0228339D01*
X0222243Y0230737D02*
X0224237Y0230737D01*
X0225578Y0233136D02*
X0220902Y0233136D01*
X0218098Y0235534D02*
X0228382Y0235534D01*
X0213340Y0222672D02*
X0213340Y0208935D01*
X0229131Y0193145D01*
X0229131Y0177397D01*
X0237005Y0169523D01*
X0246847Y0169523D01*
X0252753Y0163617D01*
X0232891Y0163579D02*
X0225370Y0163579D01*
X0229101Y0168376D02*
X0203406Y0168376D01*
X0204034Y0165977D02*
X0231499Y0165977D01*
X0226702Y0170774D02*
X0201497Y0170774D01*
X0199099Y0173173D02*
X0224304Y0173173D01*
X0222959Y0175571D02*
X0196700Y0175571D01*
X0196160Y0177970D02*
X0222731Y0177970D01*
X0222731Y0180368D02*
X0196160Y0180368D01*
X0197237Y0182767D02*
X0200861Y0182767D01*
X0199589Y0184039D02*
X0203056Y0180571D01*
X0205508Y0180571D01*
X0205508Y0186491D01*
X0199589Y0186491D01*
X0199589Y0184039D01*
X0199589Y0185165D02*
X0197680Y0185165D01*
X0199589Y0186491D02*
X0199589Y0188943D01*
X0203056Y0192411D01*
X0205508Y0192411D01*
X0205508Y0186491D01*
X0205508Y0186491D01*
X0205509Y0186491D01*
X0205509Y0186491D01*
X0211429Y0186491D01*
X0211429Y0184039D01*
X0207961Y0180571D01*
X0205509Y0180571D01*
X0205509Y0186491D01*
X0211429Y0186491D01*
X0211429Y0188943D01*
X0207961Y0192411D01*
X0205509Y0192411D01*
X0205509Y0186491D01*
X0205508Y0186491D01*
X0199589Y0186491D01*
X0199589Y0187564D02*
X0197680Y0187564D01*
X0197490Y0189962D02*
X0200607Y0189962D01*
X0203006Y0192361D02*
X0195092Y0192361D01*
X0188286Y0194759D02*
X0218465Y0194759D01*
X0218754Y0192361D02*
X0208011Y0192361D01*
X0205509Y0192361D02*
X0205508Y0192361D01*
X0205508Y0189962D02*
X0205509Y0189962D01*
X0205508Y0187564D02*
X0205509Y0187564D01*
X0205508Y0185165D02*
X0205509Y0185165D01*
X0205508Y0182767D02*
X0205509Y0182767D01*
X0210156Y0182767D02*
X0216609Y0182767D01*
X0215337Y0185165D02*
X0211429Y0185165D01*
X0211429Y0187564D02*
X0215337Y0187564D01*
X0216355Y0189962D02*
X0210410Y0189962D01*
X0216067Y0197158D02*
X0188286Y0197158D01*
X0188286Y0199556D02*
X0213668Y0199556D01*
X0211270Y0201955D02*
X0188286Y0201955D01*
X0188286Y0204353D02*
X0208871Y0204353D01*
X0207317Y0206752D02*
X0188286Y0206752D01*
X0189269Y0209150D02*
X0190576Y0209150D01*
X0196904Y0209150D02*
X0206940Y0209150D01*
X0206439Y0211549D02*
X0200641Y0211549D01*
X0202369Y0213947D02*
X0204711Y0213947D01*
X0203720Y0216346D02*
X0203360Y0216346D01*
X0203360Y0218745D02*
X0203720Y0218745D01*
X0203720Y0221143D02*
X0203360Y0221143D01*
X0203360Y0223542D02*
X0203720Y0223542D01*
X0203720Y0225940D02*
X0203360Y0225940D01*
X0203360Y0228339D02*
X0203720Y0228339D01*
X0204437Y0230737D02*
X0202643Y0230737D01*
X0201302Y0233136D02*
X0205778Y0233136D01*
X0208582Y0235534D02*
X0198498Y0235534D01*
X0188982Y0235534D02*
X0178698Y0235534D01*
X0181502Y0233136D02*
X0186178Y0233136D01*
X0184837Y0230737D02*
X0182843Y0230737D01*
X0183560Y0228339D02*
X0184120Y0228339D01*
X0184120Y0225940D02*
X0183560Y0225940D01*
X0183560Y0223542D02*
X0184120Y0223542D01*
X0193740Y0222672D02*
X0181886Y0210819D01*
X0181886Y0164365D01*
X0189760Y0156491D01*
X0191257Y0154995D01*
X0191257Y0139247D01*
X0197635Y0142869D02*
X0201257Y0139247D01*
X0197635Y0142869D02*
X0197635Y0165586D01*
X0189760Y0173460D01*
X0189760Y0186491D01*
X0167540Y0192361D02*
X0167532Y0192361D01*
X0167540Y0194759D02*
X0147976Y0194759D01*
X0148916Y0197158D02*
X0167540Y0197158D01*
X0167540Y0199556D02*
X0148916Y0199556D01*
X0150741Y0201955D02*
X0167540Y0201955D01*
X0167540Y0204353D02*
X0151734Y0204353D01*
X0152016Y0206752D02*
X0167540Y0206752D01*
X0167540Y0209150D02*
X0151877Y0209150D01*
X0150884Y0211549D02*
X0167039Y0211549D01*
X0165311Y0213947D02*
X0148928Y0213947D01*
X0148086Y0218745D02*
X0164320Y0218745D01*
X0164320Y0221143D02*
X0150485Y0221143D01*
X0151528Y0223542D02*
X0164320Y0223542D01*
X0164320Y0225940D02*
X0152016Y0225940D01*
X0152016Y0228339D02*
X0164320Y0228339D01*
X0165037Y0230737D02*
X0151089Y0230737D01*
X0149425Y0233136D02*
X0166378Y0233136D01*
X0169182Y0235534D02*
X0145795Y0235534D01*
X0139238Y0235534D02*
X0126110Y0235534D01*
X0129740Y0233136D02*
X0135607Y0233136D01*
X0133943Y0230737D02*
X0131404Y0230737D01*
X0132331Y0228339D02*
X0133016Y0228339D01*
X0132796Y0225940D02*
X0132331Y0225940D01*
X0122831Y0226609D02*
X0111020Y0214798D01*
X0091335Y0214798D01*
X0083461Y0206924D01*
X0083461Y0186491D01*
X0073619Y0179365D02*
X0059839Y0193145D01*
X0052639Y0192361D02*
X0038080Y0192361D01*
X0038080Y0194759D02*
X0048623Y0194759D01*
X0046224Y0197158D02*
X0038080Y0197158D01*
X0038080Y0199556D02*
X0043825Y0199556D01*
X0041427Y0201955D02*
X0038080Y0201955D01*
X0038080Y0204353D02*
X0039028Y0204353D01*
X0038080Y0189962D02*
X0052639Y0189962D01*
X0051339Y0187564D02*
X0038080Y0187564D01*
X0038080Y0185165D02*
X0051339Y0185165D01*
X0051339Y0182767D02*
X0038080Y0182767D01*
X0038080Y0180368D02*
X0051815Y0180368D01*
X0051423Y0177970D02*
X0038080Y0177970D01*
X0038080Y0175571D02*
X0051339Y0175571D01*
X0051339Y0173173D02*
X0038080Y0173173D01*
X0038080Y0170774D02*
X0051409Y0170774D01*
X0053439Y0168376D02*
X0038080Y0168376D01*
X0038080Y0165977D02*
X0051919Y0165977D01*
X0051919Y0163579D02*
X0038080Y0163579D01*
X0038080Y0161180D02*
X0051919Y0161180D01*
X0052726Y0158782D02*
X0038080Y0158782D01*
X0038080Y0156383D02*
X0055125Y0156383D01*
X0059839Y0162869D02*
X0059839Y0174365D01*
X0073619Y0179365D02*
X0073619Y0159680D01*
X0076808Y0156491D01*
X0083461Y0156491D01*
X0077556Y0150586D01*
X0077556Y0139247D01*
X0084306Y0134797D02*
X0084976Y0134797D01*
X0085969Y0132398D02*
X0081907Y0132398D01*
X0086431Y0130000D02*
X0065342Y0130000D01*
X0065759Y0132398D02*
X0073204Y0132398D01*
X0070806Y0134797D02*
X0065759Y0134797D01*
X0063886Y0137195D02*
X0069636Y0137195D01*
X0069636Y0139594D02*
X0038080Y0139594D01*
X0038080Y0141992D02*
X0069636Y0141992D01*
X0071156Y0144391D02*
X0038080Y0144391D01*
X0038080Y0146789D02*
X0071156Y0146789D01*
X0071156Y0149188D02*
X0038080Y0149188D01*
X0038080Y0151586D02*
X0071156Y0151586D01*
X0070263Y0153985D02*
X0038080Y0153985D01*
X0038080Y0137195D02*
X0055793Y0137195D01*
X0053919Y0134797D02*
X0038080Y0134797D01*
X0038080Y0132398D02*
X0053919Y0132398D01*
X0054337Y0130000D02*
X0038080Y0130000D01*
X0059839Y0134797D02*
X0059839Y0134797D01*
X0059839Y0137195D02*
X0059839Y0137195D01*
X0064110Y0127601D02*
X0086431Y0127601D01*
X0086431Y0125203D02*
X0065759Y0125203D01*
X0065759Y0122804D02*
X0086431Y0122804D01*
X0086431Y0120406D02*
X0065118Y0120406D01*
X0077556Y0109247D02*
X0077556Y0104562D01*
X0081493Y0100625D01*
X0093304Y0100625D01*
X0098225Y0095704D01*
X0094524Y0092003D01*
X0087398Y0092003D01*
X0079478Y0091623D02*
X0067759Y0091623D01*
X0067759Y0094022D02*
X0079478Y0094022D01*
X0076647Y0096420D02*
X0067759Y0096420D01*
X0065720Y0098819D02*
X0074248Y0098819D01*
X0072014Y0101217D02*
X0063322Y0101217D01*
X0059839Y0093499D02*
X0059839Y0082003D01*
X0067089Y0077232D02*
X0108494Y0077232D01*
X0108494Y0074834D02*
X0068339Y0074834D01*
X0068339Y0072435D02*
X0108494Y0072435D01*
X0108494Y0070037D02*
X0068339Y0070037D01*
X0067495Y0067638D02*
X0081833Y0067638D01*
X0079478Y0065240D02*
X0067039Y0065240D01*
X0068339Y0079631D02*
X0108494Y0079631D01*
X0107501Y0082029D02*
X0068339Y0082029D01*
X0068339Y0084428D02*
X0083773Y0084428D01*
X0081374Y0086826D02*
X0067037Y0086826D01*
X0066765Y0089225D02*
X0079478Y0089225D01*
X0091024Y0084428D02*
X0106945Y0084428D01*
X0106431Y0086826D02*
X0098398Y0086826D01*
X0100797Y0089225D02*
X0106431Y0089225D01*
X0106431Y0091623D02*
X0103195Y0091623D01*
X0103651Y0092079D02*
X0103651Y0092079D01*
X0105594Y0094022D02*
X0106431Y0094022D01*
X0102831Y0100310D02*
X0098225Y0095704D01*
X0102831Y0100310D02*
X0102831Y0109247D01*
X0112831Y0109247D02*
X0112831Y0086940D01*
X0114894Y0084877D01*
X0114894Y0061255D01*
X0114894Y0037633D01*
X0122894Y0037633D02*
X0122894Y0061255D01*
X0122894Y0084877D01*
X0122831Y0084940D01*
X0122831Y0109247D01*
X0132831Y0109247D02*
X0132831Y0096531D01*
X0137359Y0092003D01*
X0150390Y0092003D01*
X0158310Y0091623D02*
X0177903Y0091623D01*
X0177903Y0089225D02*
X0158310Y0089225D01*
X0156414Y0086826D02*
X0179800Y0086826D01*
X0182198Y0084428D02*
X0154016Y0084428D01*
X0146765Y0084428D02*
X0130814Y0084428D01*
X0130814Y0086826D02*
X0133485Y0086826D01*
X0131086Y0089225D02*
X0129747Y0089225D01*
X0130814Y0082029D02*
X0187704Y0082029D01*
X0189449Y0084428D02*
X0196008Y0084428D01*
X0197140Y0086826D02*
X0191847Y0086826D01*
X0193743Y0089225D02*
X0195620Y0089225D01*
X0195432Y0091623D02*
X0194495Y0091623D01*
X0201257Y0094287D02*
X0203540Y0092003D01*
X0203540Y0082909D01*
X0197635Y0077003D01*
X0191729Y0077003D01*
X0185823Y0071098D01*
X0185823Y0062003D01*
X0193743Y0062841D02*
X0195620Y0062841D01*
X0195620Y0060443D02*
X0193743Y0060443D01*
X0193065Y0058044D02*
X0196298Y0058044D01*
X0195620Y0058723D02*
X0200259Y0054083D01*
X0206821Y0054083D01*
X0211460Y0058723D01*
X0211460Y0065284D01*
X0206821Y0069923D01*
X0200259Y0069923D01*
X0195620Y0065284D01*
X0195620Y0058723D01*
X0198697Y0055646D02*
X0190667Y0055646D01*
X0180980Y0055646D02*
X0129294Y0055646D01*
X0129294Y0053247D02*
X0342302Y0053247D01*
X0344700Y0055646D02*
X0208383Y0055646D01*
X0210782Y0058044D02*
X0216843Y0058044D01*
X0215337Y0059551D02*
X0218804Y0056083D01*
X0221256Y0056083D01*
X0221256Y0062003D01*
X0215337Y0062003D01*
X0215337Y0059551D01*
X0215337Y0060443D02*
X0211460Y0060443D01*
X0211460Y0062841D02*
X0215337Y0062841D01*
X0215337Y0062003D02*
X0215337Y0064455D01*
X0218804Y0067923D01*
X0221256Y0067923D01*
X0221256Y0062003D01*
X0221256Y0062003D01*
X0215337Y0062003D01*
X0216121Y0065240D02*
X0211460Y0065240D01*
X0209105Y0067638D02*
X0218520Y0067638D01*
X0221256Y0067638D02*
X0221257Y0067638D01*
X0221257Y0067923D02*
X0221257Y0062003D01*
X0221257Y0062003D01*
X0227177Y0062003D01*
X0227177Y0059551D01*
X0223709Y0056083D01*
X0221257Y0056083D01*
X0221257Y0062003D01*
X0227177Y0062003D01*
X0227177Y0064455D01*
X0223709Y0067923D01*
X0221257Y0067923D01*
X0221256Y0065240D02*
X0221257Y0065240D01*
X0221256Y0062841D02*
X0221257Y0062841D01*
X0221257Y0062003D02*
X0221256Y0062003D01*
X0221257Y0062003D01*
X0221256Y0060443D02*
X0221257Y0060443D01*
X0221256Y0058044D02*
X0221257Y0058044D01*
X0225670Y0058044D02*
X0291646Y0058044D01*
X0290140Y0060443D02*
X0227177Y0060443D01*
X0227177Y0062841D02*
X0290140Y0062841D01*
X0290140Y0062003D02*
X0296060Y0062003D01*
X0290140Y0062003D01*
X0290924Y0065240D02*
X0226392Y0065240D01*
X0223994Y0067638D02*
X0288500Y0067638D01*
X0286101Y0070037D02*
X0193814Y0070037D01*
X0192223Y0067638D02*
X0197975Y0067638D01*
X0195620Y0065240D02*
X0193743Y0065240D01*
X0202118Y0072435D02*
X0283703Y0072435D01*
X0282595Y0074834D02*
X0204516Y0074834D01*
X0206915Y0077232D02*
X0282534Y0077232D01*
X0282534Y0079631D02*
X0209110Y0079631D01*
X0209940Y0082029D02*
X0282534Y0082029D01*
X0282534Y0084428D02*
X0224882Y0084428D01*
X0227280Y0086826D02*
X0282534Y0086826D01*
X0282534Y0089225D02*
X0229177Y0089225D01*
X0229177Y0091623D02*
X0282534Y0091623D01*
X0282534Y0094022D02*
X0229177Y0094022D01*
X0228040Y0096420D02*
X0282534Y0096420D01*
X0282534Y0098819D02*
X0253343Y0098819D01*
X0249170Y0098819D02*
X0243343Y0098819D01*
X0239170Y0098819D02*
X0233343Y0098819D01*
X0229170Y0098819D02*
X0225641Y0098819D01*
X0221257Y0092003D02*
X0218068Y0092003D01*
X0211257Y0098814D01*
X0211257Y0109247D01*
X0201257Y0109247D02*
X0201257Y0094287D01*
X0191257Y0097436D02*
X0185823Y0092003D01*
X0191257Y0097436D02*
X0191257Y0109247D01*
X0183337Y0108413D02*
X0160751Y0108413D01*
X0160751Y0110811D02*
X0183337Y0110811D01*
X0183337Y0106014D02*
X0160751Y0106014D01*
X0160198Y0103616D02*
X0183890Y0103616D01*
X0184857Y0101217D02*
X0158722Y0101217D01*
X0154918Y0098819D02*
X0181439Y0098819D01*
X0179040Y0096420D02*
X0157174Y0096420D01*
X0158310Y0094022D02*
X0177903Y0094022D01*
X0185306Y0079631D02*
X0129294Y0079631D01*
X0129294Y0077232D02*
X0182907Y0077232D01*
X0180509Y0074834D02*
X0129294Y0074834D01*
X0129294Y0072435D02*
X0179450Y0072435D01*
X0179423Y0070037D02*
X0129294Y0070037D01*
X0129294Y0067638D02*
X0147653Y0067638D01*
X0147938Y0067923D02*
X0144470Y0064455D01*
X0144470Y0062003D01*
X0144470Y0059551D01*
X0147938Y0056083D01*
X0150390Y0056083D01*
X0150390Y0062003D01*
X0144470Y0062003D01*
X0150390Y0062003D01*
X0150390Y0062003D01*
X0150390Y0062003D01*
X0150390Y0067923D01*
X0147938Y0067923D01*
X0150390Y0067923D02*
X0150390Y0062003D01*
X0150390Y0062003D01*
X0150390Y0056083D01*
X0152843Y0056083D01*
X0156310Y0059551D01*
X0156310Y0062003D01*
X0150391Y0062003D01*
X0150391Y0062003D01*
X0156310Y0062003D01*
X0156310Y0064455D01*
X0152843Y0067923D01*
X0150390Y0067923D01*
X0150390Y0067638D02*
X0150390Y0067638D01*
X0150390Y0065240D02*
X0150390Y0065240D01*
X0150390Y0062841D02*
X0150390Y0062841D01*
X0150390Y0060443D02*
X0150390Y0060443D01*
X0150390Y0058044D02*
X0150390Y0058044D01*
X0145977Y0058044D02*
X0130814Y0058044D01*
X0130814Y0060443D02*
X0144470Y0060443D01*
X0144470Y0062841D02*
X0130814Y0062841D01*
X0130110Y0065240D02*
X0145255Y0065240D01*
X0153127Y0067638D02*
X0179423Y0067638D01*
X0177903Y0065240D02*
X0155526Y0065240D01*
X0156310Y0062841D02*
X0177903Y0062841D01*
X0177903Y0060443D02*
X0156310Y0060443D01*
X0154804Y0058044D02*
X0178582Y0058044D01*
X0209940Y0084428D02*
X0217631Y0084428D01*
X0214193Y0086826D02*
X0209940Y0086826D01*
X0211460Y0089225D02*
X0211795Y0089225D01*
X0257147Y0101217D02*
X0282534Y0101217D01*
X0281567Y0103616D02*
X0258623Y0103616D01*
X0259177Y0106014D02*
X0281014Y0106014D01*
X0298934Y0109247D02*
X0298934Y0094877D01*
X0296060Y0092003D01*
X0303186Y0092003D01*
X0308934Y0097751D01*
X0308934Y0109247D01*
X0321020Y0098819D02*
X0355620Y0098819D01*
X0359800Y0092003D02*
X0315745Y0092003D01*
X0309825Y0062841D02*
X0301980Y0062841D01*
X0301980Y0060443D02*
X0309825Y0060443D01*
X0309825Y0062003D02*
X0315745Y0062003D01*
X0315745Y0062003D01*
X0309825Y0062003D01*
X0311331Y0058044D02*
X0300473Y0058044D01*
X0296060Y0058044D02*
X0296060Y0058044D01*
X0296060Y0060443D02*
X0296060Y0060443D01*
X0296060Y0062003D02*
X0296060Y0062003D01*
X0315745Y0060443D02*
X0315745Y0060443D01*
X0315745Y0058044D02*
X0315745Y0058044D01*
X0320158Y0058044D02*
X0347099Y0058044D01*
X0339903Y0050849D02*
X0129294Y0050849D01*
X0129294Y0048450D02*
X0337505Y0048450D01*
X0336167Y0046052D02*
X0129294Y0046052D01*
X0129294Y0043653D02*
X0336167Y0043653D01*
X0336167Y0041255D02*
X0130473Y0041255D01*
X0130814Y0038856D02*
X0336167Y0038856D01*
X0376768Y0071098D02*
X0380705Y0075035D01*
X0380705Y0098657D01*
X0374800Y0104562D01*
X0366926Y0104562D01*
X0374146Y0113210D02*
X0380811Y0113210D01*
X0380811Y0110811D02*
X0377725Y0110811D01*
X0380000Y0108413D02*
X0380811Y0108413D01*
X0380811Y0115609D02*
X0374168Y0115609D01*
X0377734Y0118007D02*
X0380811Y0118007D01*
X0380811Y0120406D02*
X0379325Y0120406D01*
X0380157Y0122804D02*
X0380811Y0122804D01*
X0380811Y0125203D02*
X0380157Y0125203D01*
X0379527Y0127601D02*
X0380811Y0127601D01*
X0380811Y0130000D02*
X0378222Y0130000D01*
X0380811Y0132398D02*
X0375346Y0132398D01*
X0373326Y0134797D02*
X0380811Y0134797D01*
X0380811Y0137195D02*
X0373326Y0137195D01*
X0373326Y0139594D02*
X0380811Y0139594D01*
X0380811Y0141992D02*
X0373326Y0141992D01*
X0373326Y0144391D02*
X0380811Y0144391D01*
X0380811Y0146789D02*
X0373326Y0146789D01*
X0373326Y0149188D02*
X0380811Y0149188D01*
X0380811Y0151586D02*
X0372623Y0151586D01*
X0371150Y0153985D02*
X0370609Y0153985D01*
X0368752Y0156383D02*
X0368211Y0156383D01*
X0366926Y0148617D02*
X0366926Y0130153D01*
X0366926Y0124247D01*
X0366926Y0130153D02*
X0357831Y0139247D01*
X0318934Y0139247D01*
X0325796Y0132398D02*
X0355630Y0132398D01*
X0355629Y0130000D02*
X0323607Y0130000D01*
X0314261Y0130000D02*
X0313607Y0130000D01*
X0272438Y0130153D02*
X0260627Y0118342D01*
X0272438Y0130153D02*
X0272438Y0149838D01*
X0275234Y0180368D02*
X0257830Y0180368D01*
X0260229Y0182767D02*
X0272836Y0182767D01*
X0272392Y0185165D02*
X0260673Y0185165D01*
X0260673Y0187564D02*
X0272392Y0187564D01*
X0272582Y0189962D02*
X0260482Y0189962D01*
X0258084Y0192361D02*
X0264171Y0192361D01*
X0261772Y0194759D02*
X0235389Y0194759D01*
X0234169Y0197158D02*
X0259374Y0197158D01*
X0256975Y0199556D02*
X0231770Y0199556D01*
X0229371Y0201955D02*
X0254577Y0201955D01*
X0252178Y0204353D02*
X0226973Y0204353D01*
X0224574Y0206752D02*
X0249780Y0206752D01*
X0247422Y0192361D02*
X0242336Y0192361D01*
X0244734Y0189962D02*
X0245023Y0189962D01*
X0221257Y0185165D02*
X0221256Y0185165D01*
X0221256Y0182767D02*
X0221257Y0182767D01*
X0217143Y0163579D02*
X0209622Y0163579D01*
X0212020Y0161180D02*
X0214745Y0161180D01*
X0221257Y0156491D02*
X0226414Y0156491D01*
X0231099Y0151806D01*
X0211257Y0150743D02*
X0211257Y0139247D01*
X0211257Y0150743D02*
X0205509Y0156491D01*
X0156870Y0192361D02*
X0151784Y0192361D01*
X0154183Y0189962D02*
X0154472Y0189962D01*
X0142516Y0198302D02*
X0142516Y0206924D01*
X0142516Y0198302D02*
X0130705Y0186491D01*
X0118146Y0186491D02*
X0130705Y0199050D01*
X0130705Y0214798D01*
X0142516Y0226609D01*
X0144595Y0216346D02*
X0164320Y0216346D01*
X0122831Y0206924D02*
X0111020Y0195113D01*
X0103146Y0195113D01*
X0099209Y0191176D01*
X0099209Y0186491D01*
X0114957Y0186491D02*
X0118146Y0186491D01*
X0099209Y0156491D02*
X0083461Y0156491D01*
X0068057Y0156383D02*
X0064554Y0156383D01*
X0066952Y0158782D02*
X0067219Y0158782D01*
X0099209Y0156491D02*
X0102831Y0152869D01*
X0086230Y0218745D02*
X0084724Y0218745D01*
X0084724Y0221143D02*
X0089929Y0221143D01*
X0094134Y0223542D02*
X0084724Y0223542D01*
X0084724Y0225940D02*
X0093646Y0225940D01*
X0093646Y0228339D02*
X0084724Y0228339D01*
X0083030Y0230737D02*
X0094573Y0230737D01*
X0096237Y0233136D02*
X0080632Y0233136D01*
X0078233Y0235534D02*
X0099868Y0235534D01*
X0106425Y0235534D02*
X0119553Y0235534D01*
X0115922Y0233136D02*
X0110055Y0233136D01*
X0111719Y0230737D02*
X0114258Y0230737D01*
X0113331Y0228339D02*
X0112646Y0228339D01*
X0112646Y0225940D02*
X0113111Y0225940D01*
X0284249Y0226609D02*
X0284249Y0230546D01*
X0291375Y0237672D01*
X0329524Y0237672D01*
X0311052Y0216346D02*
X0310719Y0216346D01*
X0310759Y0209150D02*
X0315250Y0209150D01*
X0315250Y0206752D02*
X0313157Y0206752D01*
X0321650Y0214798D02*
X0321650Y0192397D01*
X0327556Y0186491D01*
X0359052Y0156491D02*
X0366926Y0148617D01*
X0378449Y0153985D02*
X0380811Y0153985D01*
X0359800Y0092003D02*
X0366926Y0084877D01*
X0294718Y0228339D02*
X0293464Y0228339D01*
X0293490Y0230737D02*
X0294718Y0230737D01*
X0108494Y0067638D02*
X0092964Y0067638D01*
X0095318Y0065240D02*
X0107972Y0065240D01*
X0106979Y0062841D02*
X0095318Y0062841D01*
X0095318Y0060443D02*
X0106974Y0060443D01*
X0107652Y0058044D02*
X0094640Y0058044D01*
X0092241Y0055646D02*
X0108494Y0055646D01*
D18*
X0059839Y0037633D03*
X0059839Y0218735D03*
X0359052Y0218735D03*
X0359052Y0037633D03*
D19*
X0359052Y0055350D01*
X0352398Y0062003D01*
X0315745Y0062003D01*
X0296060Y0062003D02*
X0287438Y0062003D01*
X0278343Y0071098D01*
X0278343Y0112436D01*
X0298934Y0133027D01*
X0298934Y0139247D01*
X0288934Y0139247D02*
X0288934Y0132869D01*
X0274406Y0118342D01*
X0260627Y0118342D01*
X0217320Y0118342D01*
X0128737Y0118342D01*
X0122831Y0112436D01*
X0122831Y0109247D01*
X0109052Y0128184D02*
X0102831Y0134405D01*
X0102831Y0139247D01*
X0109052Y0128184D02*
X0217320Y0128184D01*
X0221257Y0132121D01*
X0221257Y0139247D01*
X0217320Y0118342D02*
X0221257Y0114405D01*
X0221257Y0109247D01*
X0122894Y0037633D02*
X0122894Y0031791D01*
X0114957Y0023854D01*
X0073619Y0023854D01*
X0059839Y0037633D01*
X0059839Y0072003D01*
X0059839Y0184365D02*
X0059839Y0193145D01*
X0059839Y0218735D01*
X0359052Y0218735D02*
X0368894Y0218735D01*
X0374800Y0212830D01*
X0374800Y0161649D01*
D20*
X0374800Y0161649D03*
X0331493Y0112436D03*
X0272438Y0149838D03*
X0174012Y0141964D03*
M02*
