%
M48
M72
T01C0.02756
T02C0.03200
T03C0.04724
T04C0.05200
T05C0.19685
%
T01
X174012Y141964
X272438Y149838
X331493Y112436
X374800Y161649
T02
X359052Y156491
X343304Y156491
X327556Y156491
X311808Y156491
X296060Y156491
X280312Y156491
X288934Y139247
X298934Y139247
X308934Y139247
X318934Y139247
X318934Y109247
X308934Y109247
X298934Y109247
X288934Y109247
X296060Y92003
X315745Y92003
X315745Y62003
X296060Y62003
X251257Y109247
X241257Y109247
X231257Y109247
X221257Y109247
X211257Y109247
X201257Y109247
X191257Y109247
X185823Y92003
X203540Y92003
X221257Y92003
X221257Y62003
X203540Y62003
X185823Y62003
X150390Y62003
X122894Y61255
X114894Y61255
X87398Y62003
X59839Y72003
X59839Y82003
X59839Y93499
X77556Y109247
X92831Y109247
X102831Y109247
X112831Y109247
X122831Y109247
X132831Y109247
X142831Y109247
X152831Y109247
X150390Y92003
X122894Y84877
X114894Y84877
X87398Y92003
X59839Y123499
X59839Y132869
X77556Y139247
X92831Y139247
X102831Y139247
X112831Y139247
X122831Y139247
X132831Y139247
X142831Y139247
X152831Y139247
X146453Y156491
X130705Y156491
X114957Y156491
X99209Y156491
X83461Y156491
X59839Y162869
X59839Y174365
X59839Y184365
X83461Y186491
X99209Y186491
X114957Y186491
X130705Y186491
X146453Y186491
X162201Y186491
X189760Y186491
X205509Y186491
X221257Y186491
X237005Y186491
X252753Y186491
X280312Y186491
X296060Y186491
X311808Y186491
X327556Y186491
X343304Y186491
X359052Y186491
X329524Y207672
X329524Y237672
X252753Y156491
X237005Y156491
X221257Y156491
X205509Y156491
X189760Y156491
X191257Y139247
X201257Y139247
X211257Y139247
X221257Y139247
X231257Y139247
X241257Y139247
X251257Y139247
X162201Y156491
X122894Y37633
X114894Y37633
T03
X122831Y206924
X142516Y206924
X142516Y226609
X122831Y226609
X103146Y226609
X103146Y206924
X264564Y226609
X284249Y226609
X303934Y226609
X366926Y124247
X366926Y104562
X366926Y84877
T04
X233140Y222672
X213340Y222672
X193740Y222672
X173940Y222672
T05
X59839Y37633
X59839Y218735
X359052Y218735
X359052Y37633
M30
